<svg width="59" height="76" viewBox="0 0 59 76" fill="none" xmlns="http://www.w3.org/2000/svg">
<path d="M0 11.875C0 11.2451 0.194252 10.641 0.540022 10.1956C0.885792 9.75022 1.35476 9.5 1.84375 9.5H7.375C7.78627 9.50015 8.1857 9.67742 8.50976 10.0036C8.83382 10.3298 9.06391 10.7862 9.16344 11.3002L10.6569 19H53.4688C53.7488 19.0001 54.0252 19.0824 54.2769 19.2406C54.5286 19.3988 54.749 19.6288 54.9213 19.9131C55.0937 20.1975 55.2136 20.5286 55.2717 20.8815C55.3299 21.2344 55.325 21.5997 55.2572 21.9497L49.7259 50.4498C49.6264 50.9638 49.3963 51.4202 49.0723 51.7464C48.7482 52.0726 48.3488 52.2499 47.9375 52.25H14.75C14.3387 52.2499 13.9393 52.0726 13.6152 51.7464C13.2912 51.4202 13.0611 50.9638 12.9616 50.4498L5.93688 14.25H1.84375C1.35476 14.25 0.885792 13.9998 0.540022 13.5544C0.194252 13.109 0 12.5049 0 11.875ZM11.5788 23.75L16.1881 47.5H46.4994L51.1087 23.75H11.5788ZM18.4375 61.75C17.4595 61.75 16.5216 62.2504 15.83 63.1412C15.1385 64.032 14.75 65.2402 14.75 66.5C14.75 67.7598 15.1385 68.968 15.83 69.8588C16.5216 70.7496 17.4595 71.25 18.4375 71.25C19.4155 71.25 20.3534 70.7496 21.045 69.8588C21.7365 68.968 22.125 67.7598 22.125 66.5C22.125 65.2402 21.7365 64.032 21.045 63.1412C20.3534 62.2504 19.4155 61.75 18.4375 61.75ZM11.0625 66.5C11.0625 63.9804 11.8395 61.5641 13.2226 59.7825C14.6057 58.0009 16.4815 57 18.4375 57C20.3935 57 22.2693 58.0009 23.6524 59.7825C25.0355 61.5641 25.8125 63.9804 25.8125 66.5C25.8125 69.0196 25.0355 71.4359 23.6524 73.2175C22.2693 74.9991 20.3935 76 18.4375 76C16.4815 76 14.6057 74.9991 13.2226 73.2175C11.8395 71.4359 11.0625 69.0196 11.0625 66.5ZM44.25 61.75C43.272 61.75 42.3341 62.2504 41.6425 63.1412C40.951 64.032 40.5625 65.2402 40.5625 66.5C40.5625 67.7598 40.951 68.968 41.6425 69.8588C42.3341 70.7496 43.272 71.25 44.25 71.25C45.228 71.25 46.1659 70.7496 46.8575 69.8588C47.549 68.968 47.9375 67.7598 47.9375 66.5C47.9375 65.2402 47.549 64.032 46.8575 63.1412C46.1659 62.2504 45.228 61.75 44.25 61.75ZM36.875 66.5C36.875 63.9804 37.652 61.5641 39.0351 59.7825C40.4182 58.0009 42.294 57 44.25 57C46.206 57 48.0818 58.0009 49.4649 59.7825C50.848 61.5641 51.625 63.9804 51.625 66.5C51.625 69.0196 50.848 71.4359 49.4649 73.2175C48.0818 74.9991 46.206 76 44.25 76C42.294 76 40.4182 74.9991 39.0351 73.2175C37.652 71.4359 36.875 69.0196 36.875 66.5Z" fill="white"/>
</svg>
